# xmcd
#
# Track frame offsets:
#	150
#	12690
#	27826
#	40328
#	52010
#	69283
#	84861
#	97594
#	112872
#	125944
#	145769
#	156431
#	172752
#	189034
#
# Disc length: 2701 seconds
#
# Revision: 0
# Processed by: cddbd v1.5.2PL0 Copyright (c) Steve Scherf et al.
# Submitted via: EZCDAudioConverter 2.1.3.1
#
DISCID=a90a8b0e
DTITLE=Del Rey - Artwalk
DYEAR=2014
DGENRE=Blues
TTITLE0=The Entertainer
TTITLE1=Suitcase Blues
TTITLE2=The Raccoon
TTITLE3=Archimboldi's Boogie
TTITLE4=Texas Twist
TTITLE5=New Baltimore
TTITLE6=Main Street
TTITLE7=High View Hop
TTITLE8=Mail Man Blues
TTITLE9=Neeble Neeble
TTITLE10=Be Sweet
TTITLE11=Tain't No Sin
TTITLE12=St Louis Blues
TTITLE13=The Tots
EXTD=
EXTT0=
EXTT1=
EXTT2=
EXTT3=
EXTT4=
EXTT5=
EXTT6=
EXTT7=
EXTT8=
EXTT9=
EXTT10=
EXTT11=
EXTT12=
EXTT13=
PLAYORDER=
